<svg xmlns="http://www.w3.org/2000/svg" viewBox="0 0 24 24" width="18" height="18">
  <path fill="#ffffff" d="M12.785 16.241s.288-.032.436-.194c.136-.148.132-.427.132-.427s-.02-1.304.585-1.496c.598-.189 1.365 1.26 2.179 1.815.615.418 1.082.326 1.082.326l2.175-.03s1.137-.071.598-..965c-.044-.073-.314-.661-1.618-1.867-1.364-1.261-1.181-1.057.462-3.238.999-1.332 1.399-2.146 1.273-2.494-.12-.332-.854-.244-.854-.244l-2.447.015s-.181-.025-.315.056c-.132.079-.217.263-.217.263s-.387 1.032-.903 1.91c-1.088 1.85-1.522 1.949-1.699 1.834-.413-.267-.31-1.075-.31-1.648 0-1.793.271-2.54-.529-2.733-.266-.064-.461-.106-1.141-.113-.872-.009-1.609.003-2.025.207-.278.136-.492.439-.362.456.161.021.527.099.721.363.25.341.241 1.107.241 1.107s.144 2.11-.335 2.372c-.328.179-.778-.186-1.745-1.858-.496-.859-.872-1.81-.872-1.81s-.072-.176-.202-.271c-.157-.115-.376-.151-.376-.151l-2.322.015s-.348.01-.476.161c-.114.135-.009.414-.009.414s1.819 4.255 3.876 6.399c1.888 1.97 4.03 1.84 4.03 1.84h.97z"/>
</svg>
